<?xml version="1.0" encoding="utf-8"?><!-- Generator: Adobe Illustrator 16.0.0, SVG Export Plug-In . SVG Version: 6.00 Build 0)  --><!DOCTYPE svg PUBLIC "-//W3C//DTD SVG 1.1//EN" "http://www.w3.org/Graphics/SVG/1.1/DTD/svg11.dtd"><svg version="1.1" id="Layer_1" xmlns="http://www.w3.org/2000/svg" xmlns:xlink="http://www.w3.org/1999/xlink" x="0px" y="0px" width="205px" height="32.5px" viewBox="0 0 205 32.5" enable-background="new 0 0 205 32.5" xml:space="preserve"><g><defs><rect id="SVGID_1_" width="205" height="32.5"/></defs><clipPath id="SVGID_2_"><use xlink:href="#SVGID_1_"  overflow="visible"/></clipPath></g><g><defs><path id="SVGID_3_" d="M9.618,23.415c-0.51-0.557-0.764-1.297-0.764-2.223c0-1.351,0.326-2.43,0.978-3.234c0.652-0.807,1.499-1.21,2.542-1.21c0.901,0,1.606,0.279,2.116,0.835c0.509,0.558,0.765,1.299,0.765,2.223c0,1.352-0.327,2.431-0.978,3.236c-0.653,0.806-1.5,1.209-2.543,1.209C10.833,24.251,10.128,23.973,9.618,23.415 M5.903,11.876c-1.588,0.973-2.851,2.312-3.787,4.019c-0.937,1.706-1.405,3.604-1.405,5.689c0,1.848,0.385,3.455,1.156,4.818c0.77,1.363,1.772,2.4,3.005,3.111c1.232,0.711,2.512,1.066,3.84,1.066c2.039,0,3.793-0.711,5.262-2.134l-0.355,1.778h7.574l3.876-19.451h-8.036l-0.427,2.063c-1.091-1.612-2.94-2.418-5.548-2.418C9.21,10.419,7.491,10.905,5.903,11.876"/></defs><clipPath id="SVGID_4_"><use xlink:href="#SVGID_3_"  overflow="visible"/></clipPath><linearGradient id="SVGID_5_" gradientUnits="userSpaceOnUse" x1="0" y1="32.4766" x2="1" y2="32.4766" gradientTransform="matrix(204.2109 0 0 -204.2109 0.7344 6652.6055)"><stop  offset="0" style="stop-color:#F72953"/><stop  offset="0.3695" style="stop-color:#F72953"/><stop  offset="0.5813" style="stop-color:#F72953"/><stop  offset="0.6271" style="stop-color:#F73D53"/><stop  offset="0.7119" style="stop-color:#F75E52"/><stop  offset="0.7586" style="stop-color:#F76A52"/><stop  offset="0.8461" style="stop-color:#F78352"/><stop  offset="0.9376" style="stop-color:#F79751"/><stop  offset="1" style="stop-color:#F79E51"/></linearGradient><rect x="0.711" y="10.419" clip-path="url(#SVGID_4_)" fill="url(#SVGID_5_)" width="24.358" height="20.161"/></g><g><defs><path id="SVGID_6_" d="M40.306,10.987c-1.008,0.38-1.926,0.961-2.756,1.744l0.391-1.957h-7.574l-3.875,19.451h8.036l1.884-9.351c0.498-2.466,1.694-3.699,3.591-3.699c1.351,0,2.027,0.699,2.027,2.099c0,0.213-0.048,0.604-0.142,1.173l-1.956,9.778h8.037l2.133-10.738c0.166-0.83,0.249-1.647,0.249-2.453c0-2.133-0.635-3.77-1.902-4.907c-1.269-1.139-2.958-1.707-5.068-1.707C42.338,10.419,41.313,10.608,40.306,10.987"/></defs><clipPath id="SVGID_7_"><use xlink:href="#SVGID_6_"  overflow="visible"/></clipPath><linearGradient id="SVGID_8_" gradientUnits="userSpaceOnUse" x1="0" y1="32.4766" x2="1" y2="32.4766" gradientTransform="matrix(204.2109 0 0 -204.2109 0.7344 6652.6055)"><stop  offset="0" style="stop-color:#F72953"/><stop  offset="0.3695" style="stop-color:#F72953"/><stop  offset="0.5813" style="stop-color:#F72953"/><stop  offset="0.6271" style="stop-color:#F73D53"/><stop  offset="0.7119" style="stop-color:#F75E52"/><stop  offset="0.7586" style="stop-color:#F76A52"/><stop  offset="0.8461" style="stop-color:#F78352"/><stop  offset="0.9376" style="stop-color:#F79751"/><stop  offset="1" style="stop-color:#F79E51"/></linearGradient><rect x="26.492" y="10.419" clip-path="url(#SVGID_7_)" fill="url(#SVGID_8_)" width="23.859" height="19.806"/></g><g><defs><path id="SVGID_9_" d="M57.107,10.774l-3.876,19.451h8.001l3.876-19.451H57.107z M58.849,2.275c-0.948,0.831-1.422,1.874-1.422,3.131c0,1.089,0.414,1.997,1.244,2.719c0.83,0.724,1.932,1.085,3.308,1.085c1.54,0,2.779-0.415,3.716-1.245c0.936-0.83,1.404-1.92,1.404-3.271c0-1.09-0.415-1.973-1.245-2.649c-0.83-0.676-1.932-1.014-3.307-1.014C61.03,1.031,59.797,1.446,58.849,2.275"/></defs><clipPath id="SVGID_10_"><use xlink:href="#SVGID_9_"  overflow="visible"/></clipPath><linearGradient id="SVGID_11_" gradientUnits="userSpaceOnUse" x1="0" y1="32.5" x2="1" y2="32.5" gradientTransform="matrix(204.2109 0 0 -204.2109 0.7344 6652.6055)"><stop  offset="0" style="stop-color:#F72953"/><stop  offset="0.3695" style="stop-color:#F72953"/><stop  offset="0.5813" style="stop-color:#F72953"/><stop  offset="0.6271" style="stop-color:#F73D53"/><stop  offset="0.7119" style="stop-color:#F75E52"/><stop  offset="0.7586" style="stop-color:#F76A52"/><stop  offset="0.8461" style="stop-color:#F78352"/><stop  offset="0.9376" style="stop-color:#F79751"/><stop  offset="1" style="stop-color:#F79E51"/></linearGradient><rect x="53.231" y="1.031" clip-path="url(#SVGID_10_)" fill="url(#SVGID_11_)" width="13.868" height="29.194"/></g><g><defs><path id="SVGID_12_" d="M91.919,11.219c-1.162,0.533-2.169,1.298-3.023,2.294c-0.569-1.019-1.363-1.79-2.383-2.312c-1.019-0.521-2.133-0.782-3.341-0.782c-0.997,0-1.969,0.184-2.916,0.551c-0.949,0.367-1.826,0.931-2.632,1.689l0.391-1.885h-7.574l-3.875,19.451h8.036l1.884-9.493c0.498-2.37,1.553-3.557,3.165-3.557c0.544,0,0.972,0.178,1.281,0.533c0.306,0.356,0.461,0.89,0.461,1.601c0,0.403-0.047,0.806-0.142,1.209l-1.956,9.707h8.036l1.921-9.636c0.45-2.277,1.493-3.414,3.129-3.414c0.545,0,0.972,0.178,1.28,0.533c0.308,0.356,0.463,0.89,0.463,1.601c0,0.403-0.048,0.806-0.143,1.209l-1.956,9.707h8.036l2.134-10.738c0.166-0.807,0.249-1.612,0.249-2.417c0-2.134-0.623-3.776-1.867-4.925c-1.245-1.15-2.862-1.725-4.853-1.725C94.348,10.419,93.08,10.686,91.919,11.219"/></defs><clipPath id="SVGID_13_"><use xlink:href="#SVGID_12_"  overflow="visible"/></clipPath><linearGradient id="SVGID_14_" gradientUnits="userSpaceOnUse" x1="0" y1="32.4766" x2="1" y2="32.4766" gradientTransform="matrix(204.2109 0 0 -204.2109 0.7344 6652.6055)"><stop  offset="0" style="stop-color:#F72953"/><stop  offset="0.3695" style="stop-color:#F72953"/><stop  offset="0.5813" style="stop-color:#F72953"/><stop  offset="0.6271" style="stop-color:#F73D53"/><stop  offset="0.7119" style="stop-color:#F75E52"/><stop  offset="0.7586" style="stop-color:#F76A52"/><stop  offset="0.8461" style="stop-color:#F78352"/><stop  offset="0.9376" style="stop-color:#F79751"/><stop  offset="1" style="stop-color:#F79E51"/></linearGradient><rect x="66.566" y="10.419" clip-path="url(#SVGID_13_)" fill="url(#SVGID_14_)" width="35.878" height="19.806"/></g><g><defs><path id="SVGID_15_" d="M116.08,16.588c0.581-0.463,1.31-0.693,2.187-0.693c0.878,0,1.577,0.23,2.099,0.693s0.782,1.097,0.782,1.903h-6.365C115.068,17.685,115.499,17.051,116.08,16.588 M112.329,11.859c-1.826,0.96-3.242,2.288-4.249,3.983c-1.008,1.695-1.512,3.609-1.512,5.742c0,1.825,0.444,3.414,1.334,4.765c0.889,1.352,2.145,2.395,3.769,3.129c1.624,0.735,3.49,1.103,5.602,1.103c3.295,0,6.127-0.805,8.499-2.418l-3.344-4.871c-1.21,0.901-2.62,1.351-4.231,1.351c-1.091,0-1.944-0.178-2.561-0.533c-0.617-0.355-1.008-0.937-1.173-1.741h13.619c0.284-1.187,0.425-2.313,0.425-3.379c0-1.684-0.39-3.17-1.172-4.462c-0.782-1.291-1.92-2.299-3.414-3.023c-1.493-0.723-3.26-1.084-5.298-1.084C116.252,10.419,114.154,10.899,112.329,11.859"/></defs><clipPath id="SVGID_16_"><use xlink:href="#SVGID_15_"  overflow="visible"/></clipPath><linearGradient id="SVGID_17_" gradientUnits="userSpaceOnUse" x1="0" y1="32.4766" x2="1" y2="32.4766" gradientTransform="matrix(204.2109 0 0 -204.2109 0.7344 6652.6055)"><stop  offset="0" style="stop-color:#F72953"/><stop  offset="0.3695" style="stop-color:#F72953"/><stop  offset="0.5813" style="stop-color:#F72953"/><stop  offset="0.6271" style="stop-color:#F73D53"/><stop  offset="0.7119" style="stop-color:#F75E52"/><stop  offset="0.7586" style="stop-color:#F76A52"/><stop  offset="0.8461" style="stop-color:#F78352"/><stop  offset="0.9376" style="stop-color:#F79751"/><stop  offset="1" style="stop-color:#F79E51"/></linearGradient><rect x="106.568" y="10.419" clip-path="url(#SVGID_16_)" fill="url(#SVGID_17_)" width="21.938" height="20.161"/></g><g><defs><path id="SVGID_18_" d="M136.152,6.401l-1.103,5.44h-2.666l-1.174,5.867h2.702l-0.995,4.907c-0.143,0.664-0.214,1.304-0.214,1.921c0,1.92,0.635,3.407,1.904,4.462c1.267,1.055,3.003,1.582,5.208,1.582c2.134,0,3.888-0.379,5.263-1.137l-0.925-5.406c-0.663,0.309-1.256,0.463-1.777,0.463c-0.996,0-1.494-0.45-1.494-1.351c0-0.096,0.023-0.284,0.071-0.57l0.96-4.871h3.981l1.175-5.867h-3.982l1.103-5.44H136.152z"/></defs><clipPath id="SVGID_19_"><use xlink:href="#SVGID_18_"  overflow="visible"/></clipPath><linearGradient id="SVGID_20_" gradientUnits="userSpaceOnUse" x1="0" y1="32.4863" x2="1" y2="32.4863" gradientTransform="matrix(204.2109 0 0 -204.2109 0.7344 6652.6055)"><stop  offset="0" style="stop-color:#F72953"/><stop  offset="0.3695" style="stop-color:#F72953"/><stop  offset="0.5813" style="stop-color:#F72953"/><stop  offset="0.6271" style="stop-color:#F73D53"/><stop  offset="0.7119" style="stop-color:#F75E52"/><stop  offset="0.7586" style="stop-color:#F76A52"/><stop  offset="0.8461" style="stop-color:#F78352"/><stop  offset="0.9376" style="stop-color:#F79751"/><stop  offset="1" style="stop-color:#F79E51"/></linearGradient><rect x="131.21" y="6.401" clip-path="url(#SVGID_19_)" fill="url(#SVGID_20_)" width="15.859" height="24.179"/></g><g><defs><path id="SVGID_21_" d="M150.198,22.775c-0.974,0.913-1.458,2.104-1.458,3.573c0,1.233,0.41,2.246,1.227,3.04c0.818,0.795,1.878,1.191,3.183,1.191c1.398,0,2.584-0.456,3.556-1.369c0.971-0.912,1.458-2.103,1.458-3.573c0-1.257-0.403-2.276-1.209-3.059s-1.862-1.172-3.164-1.172C152.367,21.407,151.17,21.863,150.198,22.775"/></defs><clipPath id="SVGID_22_"><use xlink:href="#SVGID_21_"  overflow="visible"/></clipPath><linearGradient id="SVGID_23_" gradientUnits="userSpaceOnUse" x1="0" y1="32.4492" x2="1" y2="32.4492" gradientTransform="matrix(204.2109 0 0 -204.2109 0.7344 6652.6055)"><stop  offset="0" style="stop-color:#F72953"/><stop  offset="0.3695" style="stop-color:#F72953"/><stop  offset="0.5813" style="stop-color:#F72953"/><stop  offset="0.6271" style="stop-color:#F73D53"/><stop  offset="0.7119" style="stop-color:#F75E52"/><stop  offset="0.7586" style="stop-color:#F76A52"/><stop  offset="0.8461" style="stop-color:#F78352"/><stop  offset="0.9376" style="stop-color:#F79751"/><stop  offset="1" style="stop-color:#F79E51"/></linearGradient><rect x="148.74" y="21.407" clip-path="url(#SVGID_22_)" fill="url(#SVGID_23_)" width="9.423" height="9.173"/></g><g><defs><path id="SVGID_24_" d="M167.23,6.401l-1.103,5.44h-2.667l-1.174,5.867h2.702l-0.995,4.907c-0.144,0.664-0.214,1.304-0.214,1.921c0,1.92,0.635,3.407,1.903,4.462c1.268,1.055,3.005,1.582,5.209,1.582c2.135,0,3.888-0.379,5.263-1.137l-0.924-5.406c-0.664,0.309-1.258,0.463-1.778,0.463c-0.996,0-1.494-0.45-1.494-1.351c0-0.096,0.024-0.284,0.072-0.57l0.959-4.871h3.981l1.176-5.867h-3.983l1.103-5.44H167.23z"/></defs><clipPath id="SVGID_25_"><use xlink:href="#SVGID_24_"  overflow="visible"/></clipPath><linearGradient id="SVGID_26_" gradientUnits="userSpaceOnUse" x1="0" y1="32.4863" x2="1" y2="32.4863" gradientTransform="matrix(204.2109 0 0 -204.2109 0.7344 6652.6055)"><stop  offset="0" style="stop-color:#F72953"/><stop  offset="0.3695" style="stop-color:#F72953"/><stop  offset="0.5813" style="stop-color:#F72953"/><stop  offset="0.6271" style="stop-color:#F73D53"/><stop  offset="0.7119" style="stop-color:#F75E52"/><stop  offset="0.7586" style="stop-color:#F76A52"/><stop  offset="0.8461" style="stop-color:#F78352"/><stop  offset="0.9376" style="stop-color:#F79751"/><stop  offset="1" style="stop-color:#F79E51"/></linearGradient><rect x="162.287" y="6.401" clip-path="url(#SVGID_25_)" fill="url(#SVGID_26_)" width="15.86" height="24.179"/></g><g><defs><polygon id="SVGID_27_" points="196.992,10.774 190.805,21.228 188.885,10.774 180.955,10.774 184.902,30.225 193.224,30.225 204.922,10.774 "/></defs><clipPath id="SVGID_28_"><use xlink:href="#SVGID_27_"  overflow="visible"/></clipPath><linearGradient id="SVGID_29_" gradientUnits="userSpaceOnUse" x1="0" y1="32.4766" x2="1" y2="32.4766" gradientTransform="matrix(204.2109 0 0 -204.2109 0.7344 6652.6055)"><stop  offset="0" style="stop-color:#F72953"/><stop  offset="0.3695" style="stop-color:#F72953"/><stop  offset="0.5813" style="stop-color:#F72953"/><stop  offset="0.6271" style="stop-color:#F73D53"/><stop  offset="0.7119" style="stop-color:#F75E52"/><stop  offset="0.7586" style="stop-color:#F76A52"/><stop  offset="0.8461" style="stop-color:#F78352"/><stop  offset="0.9376" style="stop-color:#F79751"/><stop  offset="1" style="stop-color:#F79E51"/></linearGradient><rect x="180.955" y="10.774" clip-path="url(#SVGID_28_)" fill="url(#SVGID_29_)" width="23.967" height="19.451"/></g></svg>